<svg width="32" height="32" viewBox="0 0 32 32" fill="none" xmlns="http://www.w3.org/2000/svg">
  <defs>
    <linearGradient id="gradient1" x1="0%" y1="0%" x2="100%" y2="100%">
      <stop offset="0%" style="stop-color:#3B82F6;stop-opacity:1" />
      <stop offset="50%" style="stop-color:#8B5CF6;stop-opacity:1" />
      <stop offset="100%" style="stop-color:#06B6D4;stop-opacity:1" />
    </linearGradient>
    <linearGradient id="gradient2" x1="0%" y1="0%" x2="100%" y2="100%">
      <stop offset="0%" style="stop-color:#10B981;stop-opacity:1" />
      <stop offset="100%" style="stop-color:#3B82F6;stop-opacity:1" />
    </linearGradient>
  </defs>
  
  <!-- Background Circle -->
  <circle cx="16" cy="16" r="15" fill="url(#gradient1)" stroke="#ffffff" stroke-width="2"/>
  
  <!-- Network Nodes -->
  <circle cx="8" cy="8" r="2" fill="#ffffff" opacity="0.9"/>
  <circle cx="24" cy="8" r="2" fill="#ffffff" opacity="0.9"/>
  <circle cx="8" cy="24" r="2" fill="#ffffff" opacity="0.9"/>
  <circle cx="24" cy="24" r="2" fill="#ffffff" opacity="0.9"/>
  <circle cx="16" cy="16" r="3" fill="#ffffff"/>
  
  <!-- Connection Lines -->
  <line x1="8" y1="8" x2="16" y2="16" stroke="#ffffff" stroke-width="1.5" opacity="0.7"/>
  <line x1="24" y1="8" x2="16" y2="16" stroke="#ffffff" stroke-width="1.5" opacity="0.7"/>
  <line x1="8" y1="24" x2="16" y2="16" stroke="#ffffff" stroke-width="1.5" opacity="0.7"/>
  <line x1="24" y1="24" x2="16" y2="16" stroke="#ffffff" stroke-width="1.5" opacity="0.7"/>
  
  <!-- Flow Arrows -->
  <path d="M12 6 L14 8 L12 10" stroke="#ffffff" stroke-width="1.5" fill="none" opacity="0.8"/>
  <path d="M20 6 L18 8 L20 10" stroke="#ffffff" stroke-width="1.5" fill="none" opacity="0.8"/>
  <path d="M6 12 L8 14 L6 16" stroke="#ffffff" stroke-width="1.5" fill="none" opacity="0.8"/>
  <path d="M26 12 L24 14 L26 16" stroke="#ffffff" stroke-width="1.5" fill="none" opacity="0.8"/>
</svg>
